HIERARCHY
ROOT SpineBase
{
  OFFSET 0.000000 0.000000 0.000000
  CHANNELS 6 Xposition Yposition Zposition Zrotation Xrotation Yrotation
  JOINT SpineMid
  {
    OFFSET 0.000000 31.636244 0.000000
    CHANNELS 3 Zrotation Xrotation Yrotation
    JOINT SpineShoulder
    {
      OFFSET 0.029458 23.601534 -0.782307
      CHANNELS 3 Zrotation Xrotation Yrotation
      JOINT Neck
      {
        OFFSET 0.059677 7.802502 -0.564334
        CHANNELS 3 Zrotation Xrotation Yrotation
        JOINT Head
        {
          OFFSET -4.611425 14.377964 0.000452
          CHANNELS 3 Zrotation Xrotation Yrotation
          End Site
          {
            OFFSET 0 0 0
          }
        }
      }
      JOINT ShoulderLeft
      {
        OFFSET -16.497052 -5.621985 6.850601
        CHANNELS 3 Zrotation Xrotation Yrotation
        JOINT ElbowLeft
        {
          OFFSET -1.186560 -30.063143 4.441413
          CHANNELS 3 Zrotation Xrotation Yrotation
          JOINT WristLeft
          {
            OFFSET -0.006848 -23.283411 -2.217507
            CHANNELS 3 Zrotation Xrotation Yrotation
            JOINT HandLeft
            {
              OFFSET -0.557610 -4.220764 -0.450884
              CHANNELS 3 Zrotation Xrotation Yrotation
              JOINT HandTipLeft
              {
                OFFSET 0.442297 -6.321246 -1.699410
                CHANNELS 3 Zrotation Xrotation Yrotation
                End Site
                {
                  OFFSET 0 0 0
                }
              }
              JOINT ThumbLeft
              {
                OFFSET 3.380701 2.778698 -3.164925
                CHANNELS 3 Zrotation Xrotation Yrotation
                End Site
                {
                  OFFSET 0 0 0
                }
              }
            }
          }
        }
      }
      JOINT ShoulderRight
      {
        OFFSET 14.329956 -3.764435 -9.319868
        CHANNELS 3 Zrotation Xrotation Yrotation
        JOINT ElbowRight
        {
          OFFSET 7.926584 -26.578428 -1.231739
          CHANNELS 3 Zrotation Xrotation Yrotation
          JOINT WristRight
          {
            OFFSET 0.606932 -22.724565 -6.487261
            CHANNELS 3 Zrotation Xrotation Yrotation
            JOINT HandRight
            {
              OFFSET -1.557007 -7.055603 -1.385218
              CHANNELS 3 Zrotation Xrotation Yrotation
              JOINT HandTipRight
              {
                OFFSET 0.071472 -6.226619 -1.248597
                CHANNELS 3 Zrotation Xrotation Yrotation
                End Site
                {
                  OFFSET 0 0 0
                }
              }
              JOINT ThumbRight
              {
                OFFSET 2.416570 -0.596462 -2.717916
                CHANNELS 3 Zrotation Xrotation Yrotation
                End Site
                {
                  OFFSET 0 0 0
                }
              }
            }
          }
        }
      }
    }
  }
  JOINT HipLeft
  {
    OFFSET -6.595801 0.152456 -0.824737
    CHANNELS 3 Zrotation Xrotation Yrotation
    JOINT KneeLeft
    {
      OFFSET 2.924092 -34.217711 2.961437
      CHANNELS 3 Zrotation Xrotation Yrotation
      JOINT AnkleLeft
      {
        OFFSET 9.109384 -37.020035 7.658348
        CHANNELS 3 Zrotation Xrotation Yrotation
        JOINT FootLeft
        {
          OFFSET -0.380708 -8.566565 -6.002298
          CHANNELS 3 Zrotation Xrotation Yrotation
          End Site
          {
            OFFSET 0 0 0
          }
        }
      }
    }
  }
  JOINT HipRight
  {
    OFFSET 7.128850 1.674266 -6.381030
    CHANNELS 3 Zrotation Xrotation Yrotation
    JOINT KneeRight
    {
      OFFSET 6.727147 -31.740602 -0.367064
      CHANNELS 3 Zrotation Xrotation Yrotation
      JOINT AnkleRight
      {
        OFFSET 4.344762 -39.277348 9.394377
        CHANNELS 3 Zrotation Xrotation Yrotation
        JOINT FootRight
        {
          OFFSET -3.026962 -9.227495 -0.468684
          CHANNELS 3 Zrotation Xrotation Yrotation
          End Site
          {
            OFFSET 0 0 0
          }
        }
      }
    }
  }
}
MOTION
Frames: 16
Frame Time: 0.033333
-25.310309 80.777840 337.951506 -0.000000 0.000000 22.040089 0.000000 0.000000 -22.040089 -0.000000 0.000000 0.000000 -0.000000 0.000000 0.000000 0.000000 0.000000 0.000000 -0.000000 0.000000 0.000000 -0.000000 0.000000 0.000000 -0.000000 0.000000 0.000000 -0.000000 0.000000 0.000000 0.000000 0.000000 0.000000 0.000000 0.000000 0.000000 -0.000000 0.000000 0.000000 -0.000000 0.000000 0.000000 -0.000000 0.000000 0.000000 -0.000000 0.000000 0.000000 0.000000 0.000000 0.000000 0.000000 0.000000 0.000000 0.000000 0.000000 -22.040089 -0.000000 0.000000 0.000000 -0.000000 0.000000 0.000000 0.000000 0.000000 0.000000 0.000000 0.000000 -22.040089 -0.000000 0.000000 0.000000 -0.000000 0.000000 0.000000 0.000000 0.000000 0.000000
-25.346049 80.780084 337.963696 -0.041389 -0.019642 22.062110 0.045736 0.002658 -22.062118 -0.000000 0.000000 0.000000 -0.000000 0.000000 0.000000 0.000000 0.000000 0.000000 -0.000000 0.000000 0.000000 -0.000000 0.000000 0.000000 0.362731 1.199689 -0.200904 -0.358601 -1.200930 0.193348 0.000000 0.000000 0.000000 0.000000 0.000000 0.000000 -0.000000 0.000000 0.000000 -0.000000 0.000000 0.000000 -0.000000 0.000000 0.000000 0.166717 -1.760883 -0.051240 0.000000 0.000000 0.000000 0.000000 0.000000 0.000000 0.045736 0.002658 -22.062118 -0.000000 0.000000 0.000000 -0.000000 0.000000 0.000000 0.000000 0.000000 0.000000 0.045736 0.002658 -22.062118 -0.000000 0.000000 0.000000 -2.979473 14.450764 -4.172157 0.000000 0.000000 0.000000
-25.378785 80.782639 337.977525 -0.080091 -0.040503 22.083426 0.089442 0.007421 -22.083460 -0.000000 0.000000 0.000000 -0.000000 0.000000 0.000000 0.000000 0.000000 0.000000 -0.000000 0.000000 0.000000 -0.000000 0.000000 0.000000 0.522048 2.077456 -0.339265 -0.510076 -2.080427 0.320538 0.000000 0.000000 0.000000 0.000000 0.000000 0.000000 -0.000000 0.000000 0.000000 -0.000000 0.000000 0.000000 -0.000000 0.000000 0.000000 0.223457 -3.125192 -0.075003 0.000000 0.000000 0.000000 0.000000 0.000000 0.000000 0.089442 0.007421 -22.083460 -0.000000 0.000000 0.000000 -0.000000 0.000000 0.000000 0.000000 0.000000 0.000000 0.089442 0.007421 -22.083460 -0.000000 0.000000 0.000000 -4.764073 25.931238 -7.125059 0.000000 0.000000 0.000000
-25.408518 80.785505 337.992994 -0.116111 -0.062583 22.104036 0.131126 0.014291 -22.104115 -0.000000 0.000000 0.000000 -0.000000 0.000000 0.000000 0.000000 0.000000 0.000000 -0.000000 0.000000 0.000000 -0.000000 0.000000 0.000000 0.498035 2.683614 -0.418660 -0.478947 -2.687083 0.395761 0.000000 0.000000 0.000000 0.000000 0.000000 0.000000 -0.000000 0.000000 0.000000 -0.000000 0.000000 0.000000 -0.000000 0.000000 0.000000 0.172280 -4.096525 -0.075971 0.000000 0.000000 0.000000 0.000000 0.000000 0.000000 0.131126 0.014291 -22.104115 -0.000000 0.000000 0.000000 0.687377 -0.081241 -0.477892 0.000000 0.000000 0.000000 0.131126 0.014291 -22.104115 -0.000000 0.000000 0.000000 -5.770231 33.702777 -9.035623 0.000000 0.000000 0.000000
-25.435248 80.788682 338.010102 -0.149456 -0.085883 22.123939 0.170796 0.023272 -22.124085 -0.000000 0.000000 0.000000 -0.000000 0.000000 0.000000 0.000000 0.000000 0.000000 -0.000000 0.000000 0.000000 -0.000000 0.000000 0.000000 0.301384 3.050855 -0.442262 -0.278232 -3.053051 0.426822 0.000000 0.000000 0.000000 0.000000 0.000000 0.000000 -0.000000 0.000000 0.000000 -0.000000 0.000000 0.000000 -0.000000 0.000000 0.000000 0.014688 -4.679702 -0.056554 0.000000 0.000000 0.000000 0.000000 0.000000 0.000000 0.170796 0.023272 -22.124085 -0.000000 0.000000 0.000000 1.115518 0.177740 -0.790729 0.000000 0.000000 0.000000 0.170796 0.023272 -22.124085 -0.000000 0.000000 0.000000 -6.365121 38.152699 -10.084244 0.000000 0.000000 0.000000
-25.458975 80.792170 338.028851 -0.180130 -0.110405 22.143133 0.208458 0.034366 -22.143369 -0.000000 0.000000 0.000000 -0.000000 0.000000 0.000000 0.000000 0.000000 0.000000 -0.000000 0.000000 0.000000 -0.000000 0.000000 0.000000 -0.064959 3.198308 -0.412626 0.088115 -3.197754 0.416899 0.000000 0.000000 0.000000 0.000000 0.000000 0.000000 -0.000000 0.000000 0.000000 -0.000000 0.000000 0.000000 -0.000000 0.000000 0.000000 -0.248360 -4.879382 -0.016966 0.000000 0.000000 0.000000 0.000000 0.000000 0.000000 0.208458 0.034366 -22.143369 -0.000000 0.000000 0.000000 1.644168 0.575774 -1.182490 0.000000 0.000000 0.000000 0.208458 0.034366 -22.143369 -0.000000 0.000000 0.000000 -6.764475 39.777471 -10.383421 0.000000 0.000000 0.000000
-25.481549 80.795948 338.049658 -0.210163 -0.132825 22.170266 0.244747 0.043697 -22.170603 -0.000000 0.000000 0.000000 -0.000000 0.000000 0.000000 0.000000 0.000000 0.000000 -0.000000 0.000000 0.000000 -0.000000 0.000000 0.000000 0.807725 4.920335 -0.768599 -1.708394 -5.638201 0.824992 0.000000 0.000000 0.000000 0.000000 0.000000 0.000000 -0.000000 0.000000 0.000000 -0.000000 0.000000 0.000000 0.592901 -1.001254 0.110050 -1.025028 -3.571372 -0.076311 0.000000 0.000000 0.000000 0.000000 0.000000 0.000000 0.244747 0.043697 -22.170603 -0.000000 0.000000 0.000000 2.130516 0.972610 -1.546249 0.000000 0.000000 0.000000 1.047589 0.163520 -22.092504 -0.698846 -0.412955 -0.082069 -7.208522 39.399211 -10.088880 0.000000 0.000000 0.000000
-25.562110 80.789342 338.088605 -0.330985 -0.181444 22.236718 0.375033 0.042691 -22.237382 -0.000000 0.000000 0.000000 -0.000000 0.000000 0.000000 0.000000 0.000000 0.000000 -0.000000 0.000000 0.000000 0.193221 1.309103 -0.020972 -1.219026 2.692425 -0.388394 0.051311 -4.908298 0.584297 0.000000 0.000000 0.000000 0.000000 0.000000 0.000000 -0.000000 0.000000 0.000000 -0.982777 0.043362 0.282127 1.322289 -2.555376 0.212705 -0.938687 -0.120324 -0.378680 0.000000 0.000000 0.000000 0.000000 0.000000 0.000000 0.375033 0.042691 -22.237382 -0.000000 0.000000 0.000000 4.838760 -1.791363 -3.278242 0.000000 0.000000 0.000000 1.382303 0.152637 -22.147191 -0.891532 -0.481526 -0.095654 -7.307529 36.279295 -9.180698 0.000000 0.000000 0.000000
-25.627261 80.782335 338.147239 -0.401803 -0.224107 22.260071 0.456752 0.055193 -22.261077 -0.000000 0.000000 0.000000 -0.000000 0.000000 0.000000 0.000000 0.000000 0.000000 -0.000000 0.000000 0.000000 0.399022 1.484017 -0.043554 -3.067473 2.226099 -0.153685 1.454186 -4.868630 0.449656 0.000000 0.000000 0.000000 0.000000 0.000000 0.000000 -0.000000 0.000000 0.000000 -1.434517 -0.125166 0.404888 3.491138 -3.470905 0.036489 -3.554913 3.175566 0.063383 0.000000 0.000000 0.000000 0.000000 0.000000 0.000000 1.299435 0.055618 -22.167127 -0.780247 -0.318330 -0.096933 4.971603 -0.045482 -3.488248 0.000000 0.000000 0.000000 1.651763 0.197806 -22.152177 -1.053076 -0.582623 -0.116893 -7.360260 29.379436 -7.286936 0.000000 0.000000 0.000000
-25.547853 80.795147 338.153178 -0.288969 -0.221500 22.263571 0.351346 0.095504 -22.264422 -0.000000 0.000000 0.000000 -0.000000 0.000000 0.000000 0.000000 0.000000 0.000000 -0.000000 0.000000 0.000000 0.786974 1.884355 -0.088311 -4.750341 -2.365004 0.400319 1.092660 -0.743728 0.180327 0.000000 0.000000 0.000000 0.000000 0.000000 0.000000 -0.000000 0.000000 0.000000 -1.132209 -0.360508 0.310395 4.939411 -4.299072 0.090107 -6.523221 4.238733 0.626802 0.000000 0.000000 0.000000 0.000000 0.000000 0.000000 0.351346 0.095504 -22.264422 -0.000000 0.000000 0.000000 3.271931 5.198889 -2.593284 0.000000 0.000000 0.000000 1.431777 0.270422 -22.157790 -0.934713 -0.569434 -0.114728 -6.013204 19.309083 -4.934362 0.000000 0.000000 0.000000
-25.349293 80.830209 338.104740 -0.026369 -0.168985 22.284229 0.088479 0.146365 -22.284381 -0.000000 0.000000 0.000000 -0.000000 0.000000 0.000000 0.000000 0.000000 0.000000 -0.083922 -1.305244 0.038099 1.252241 3.456225 -0.199843 -6.330091 -5.090685 0.699686 3.229741 -0.799670 -0.773063 0.000000 0.000000 0.000000 0.000000 0.000000 0.000000 -1.310116 -0.313831 -0.036595 1.349571 -0.778879 -0.010900 4.534695 -2.752612 0.058742 -7.453312 3.292589 0.951200 0.000000 0.000000 0.000000 0.000000 0.000000 0.000000 0.088479 0.146365 -22.284381 -0.000000 0.000000 0.000000 0.112433 12.395204 -0.598487 0.000000 0.000000 0.000000 0.088479 0.146365 -22.284381 -0.000000 0.000000 0.000000 -3.955547 6.377767 -1.649383 0.000000 0.000000 0.000000
-25.052480 80.890756 337.984141 0.343435 -0.103604 22.054103 -0.279406 0.224975 -22.053244 -0.000000 0.000000 0.000000 -0.000000 0.000000 0.000000 0.000000 0.000000 0.000000 -0.340537 -2.161959 0.028522 1.170245 1.627548 -0.147568 -6.371585 -6.848820 1.346358 3.888957 -2.078039 -2.089353 0.000000 0.000000 0.000000 0.000000 0.000000 0.000000 -0.974510 -1.243574 -0.337327 3.569067 -0.468752 -0.490949 4.273092 -0.580250 -0.078434 -10.262011 0.098224 1.706408 0.000000 0.000000 0.000000 0.000000 0.000000 0.000000 -0.279406 0.224975 -22.053244 -0.000000 0.000000 0.000000 -4.133554 20.018645 2.424438 0.000000 0.000000 0.000000 -0.279406 0.224975 -22.053244 -0.000000 0.000000 0.000000 -4.231184 4.194040 -0.992508 0.000000 0.000000 0.000000
-24.697013 80.970052 337.804549 0.778106 -0.044480 21.677774 -0.706653 0.328745 -21.675445 -0.000000 0.000000 0.000000 -0.000000 0.000000 0.000000 0.000000 0.000000 0.000000 -0.322392 -1.563833 0.009677 0.536040 -5.084789 -0.030569 -5.265129 -6.887233 2.376624 -0.015539 -3.465503 -2.385741 0.000000 0.000000 0.000000 0.000000 0.000000 0.000000 -0.367668 -2.576231 -0.761187 6.698583 -0.087525 -1.286314 3.748444 2.155136 -0.264692 -10.919433 -2.680263 2.037378 0.000000 0.000000 0.000000 0.000000 0.000000 0.000000 -1.502487 0.193940 -21.767355 0.689090 0.420326 0.093013 -9.344367 26.535275 6.468974 0.000000 0.000000 0.000000 -0.706653 0.328745 -21.675445 -0.000000 0.000000 0.000000 -6.124780 9.378690 -2.220670 0.000000 0.000000 0.000000
-24.334898 81.058211 337.577376 1.225555 -0.023923 21.073628 -1.135013 0.462959 -21.068786 -0.000000 0.000000 0.000000 1.084245 -0.231622 -0.071912 0.000000 0.000000 0.000000 -0.795310 -2.881983 -0.023637 -0.427692 -13.203932 -0.005857 -2.605280 -6.546937 3.531115 -3.000669 -1.028460 -2.794448 0.000000 0.000000 0.000000 0.000000 0.000000 0.000000 2.616447 -3.730049 -1.142787 9.463480 -0.584763 -2.624347 3.868114 6.333649 -1.116271 -13.912935 -8.373167 3.082375 0.000000 0.000000 0.000000 0.000000 0.000000 0.000000 -2.593012 0.105341 -21.241541 1.229410 0.861544 0.170742 -14.449211 31.550878 10.640139 0.000000 0.000000 0.000000 -2.585510 0.619119 -21.118549 1.409254 0.377056 0.058823 -6.327869 9.490473 -2.222858 0.000000 0.000000 0.000000
-24.024263 81.154600 337.331451 1.626282 -0.073948 20.366435 -0.668937 0.094863 -20.330069 -0.060581 -0.449392 0.041965 0.765894 0.416977 -0.160761 0.000000 0.000000 0.000000 -2.526872 -4.886600 -0.143786 -2.848186 -23.126145 -0.330685 -4.482051 -1.915414 5.785984 -0.051493 -0.435104 -4.992256 0.000000 0.000000 0.000000 0.000000 0.000000 0.000000 6.625857 -4.188772 -1.602935 12.659071 -0.895821 -4.632825 1.679340 8.900880 -1.125525 -13.597913 -12.254180 3.982335 0.000000 0.000000 0.000000 0.000000 0.000000 0.000000 -3.518177 -0.029393 -20.603589 1.656379 1.332566 0.237926 -18.820488 34.644634 14.315912 0.000000 0.000000 0.000000 -3.647331 0.769738 -20.438888 2.059887 0.624479 0.096928 -6.556289 10.233619 -2.388775 0.000000 0.000000 0.000000
-23.829119 81.212712 337.085015 1.924301 -0.205266 19.502226 -0.645557 0.063339 -19.451318 -0.028472 -0.443461 0.059345 1.135659 0.496497 -0.213650 0.000000 0.000000 0.000000 -3.892026 -8.232349 -0.285804 -6.927332 -33.740960 -1.469786 -4.196530 2.972547 8.225695 3.120414 0.715024 -8.131427 0.000000 0.000000 0.000000 0.000000 0.000000 0.000000 12.597508 -5.180122 -1.921371 15.392004 -1.393800 -6.865900 1.454161 10.171418 -1.509383 -13.461116 -13.396713 5.231168 0.000000 0.000000 0.000000 0.000000 0.000000 0.000000 -4.111931 -0.232855 -19.789420 1.865350 1.806375 0.286414 -21.682676 36.070519 16.750651 0.000000 0.000000 0.000000 -4.391268 0.887400 -19.594459 2.509465 0.839086 0.129823 -6.592931 10.963051 -2.576986 0.000000 0.000000 0.000000
